<?xml version="1.0" standalone="no"?>
<!DOCTYPE svg PUBLIC "-//W3C//DTD SVG 20010904//EN"
 "http://www.w3.org/TR/2001/REC-SVG-20010904/DTD/svg10.dtd">
<svg version="1.0" xmlns="http://www.w3.org/2000/svg"
 width="30.000000pt" height="30.000000pt" viewBox="0 0 512.000000 512.000000"
 preserveAspectRatio="xMidYMid meet">

<g transform="translate(0.000000,512.000000) scale(0.100000,-0.100000)"
fill="#c1c1c1" stroke="none">
<path d="M603 4089 c-40 -12 -80 -59 -89 -104 -8 -46 21 -102 66 -127 33 -17
110 -18 1980 -18 1870 0 1947 1 1980 18 45 25 74 81 66 127 -9 47 -50 92 -94
105 -48 13 -3863 12 -3909 -1z"/>
<path d="M1101 3312 c-49 -24 -74 -62 -74 -112 0 -50 25 -88 74 -112 32 -17
122 -18 1459 -18 1337 0 1427 1 1459 18 49 24 74 62 74 112 0 50 -25 88 -74
112 -32 17 -122 18 -1459 18 -1337 0 -1427 -1 -1459 -18z"/>
<path d="M580 2542 c-45 -25 -74 -81 -66 -127 9 -47 50 -92 94 -105 51 -14
3853 -14 3904 0 44 13 85 58 94 105 8 46 -21 102 -66 127 -33 17 -110 18
-1980 18 -1870 0 -1947 -1 -1980 -18z"/>
<path d="M1089 1773 c-82 -51 -81 -176 2 -219 42 -21 2896 -21 2938 0 84 44
84 170 1 220 -26 15 -153 16 -1472 16 -1316 -1 -1445 -2 -1469 -17z"/>
<path d="M557 987 c-64 -60 -56 -151 18 -197 32 -20 45 -20 1985 -20 1940 0
1953 0 1985 20 74 46 82 137 18 197 l-34 33 -1969 0 -1969 0 -34 -33z"/>
</g>
</svg>
