<?xml version="1.0" standalone="no"?>
<!DOCTYPE svg PUBLIC "-//W3C//DTD SVG 20010904//EN"
 "http://www.w3.org/TR/2001/REC-SVG-20010904/DTD/svg10.dtd">
<svg version="1.0" xmlns="http://www.w3.org/2000/svg"
 width="30.000000pt" height="30.000000pt" viewBox="0 0 512.000000 512.000000"
 preserveAspectRatio="xMidYMid meet">

<g transform="translate(0.000000,512.000000) scale(0.100000,-0.100000)"
fill="#c1c1c1" stroke="none">
<path d="M603 4089 c-40 -12 -80 -59 -89 -104 -8 -46 21 -102 66 -127 33 -17
110 -18 1980 -18 1870 0 1947 1 1980 18 45 25 74 81 66 127 -9 47 -50 92 -94
105 -48 13 -3863 12 -3909 -1z"/>
<path d="M582 3310 c-38 -23 -72 -75 -72 -110 0 -35 34 -87 72 -110 33 -20 54
-20 1461 -20 1195 0 1433 2 1461 14 101 42 101 190 0 232 -28 12 -266 14
-1461 14 -1407 0 -1428 0 -1461 -20z"/>
<path d="M580 2542 c-45 -25 -74 -81 -66 -127 9 -47 50 -92 94 -105 51 -14
3853 -14 3904 0 44 13 85 58 94 105 8 46 -21 102 -66 127 -33 17 -110 18
-1980 18 -1870 0 -1947 -1 -1980 -18z"/>
<path d="M573 1769 c-72 -46 -80 -137 -16 -196 l34 -33 1451 0 c1324 0 1452 1
1478 16 38 23 60 64 60 114 0 36 -6 48 -39 81 l-39 39 -1448 0 c-1437 0 -1449
-1 -1481 -21z"/>
<path d="M557 987 c-64 -60 -56 -151 18 -197 32 -20 45 -20 1985 -20 1940 0
1953 0 1985 20 74 46 82 137 18 197 l-34 33 -1969 0 -1969 0 -34 -33z"/>
</g>
</svg>
