<?xml version="1.0" standalone="no"?>
<!DOCTYPE svg PUBLIC "-//W3C//DTD SVG 20010904//EN"
 "http://www.w3.org/TR/2001/REC-SVG-20010904/DTD/svg10.dtd">
<svg version="1.0" xmlns="http://www.w3.org/2000/svg" fill="#c1c1c1"
 width="98.000000pt" height="98.000000pt" viewBox="0 0 96.000000 96.000000"
 preserveAspectRatio="xMidYMid meet">

<g transform="translate(0.000000,96.000000) scale(0.100000,-0.100000)"
fill="#c1c1c1" stroke="none" >
<path d="M435 868 c-3 -7 -56 -150 -119 -318 l-114 -305 35 -3 c20 -2 39 0 43
5 4 4 22 50 41 100 l33 93 126 0 126 0 33 -92 c19 -51 37 -97 41 -101 4 -5 23
-7 43 -5 l35 3 -118 315 -118 315 -41 3 c-27 2 -43 -1 -46 -10z m93 -221 c23
-63 42 -117 42 -120 0 -4 -40 -7 -90 -7 -49 0 -90 3 -90 7 0 13 85 233 90 233
3 0 24 -51 48 -113z"/>
<path d="M200 120 l0 -40 280 0 280 0 0 40 0 40 -280 0 -280 0 0 -40z"/>
</g>
</svg>