<?xml version="1.0" encoding="utf-8"?>
<!-- Svg Vector Icons : http://www.onlinewebfonts.com/icon -->
<!DOCTYPE svg PUBLIC "-//W3C//DTD SVG 1.1//EN" "http://www.w3.org/Graphics/SVG/1.1/DTD/svg11.dtd">
<svg fill="#fff" version="1.1" xmlns="http://www.w3.org/2000/svg" xmlns:xlink="http://www.w3.org/1999/xlink" x="0px" y="0px" viewBox="0 0 1000 1000" enable-background="new 0 0 1000 1000" xml:space="preserve">
<metadata> Svg Vector Icons : http://www.onlinewebfonts.com/icon </metadata>
<g><g transform="translate(0.000000,511.000000) scale(0.100000,-0.100000)"><path d="M161,4454.3c-23.7-23.7-47.3-64.5-53.8-90.3c-6.5-28-8.6-1449.5-6.5-3159.3c6.5-3026,8.6-3112,47.3-3157.2l40.9-45.2h1987.2c1767.8,0,1985.1-4.3,1985.1-32.3c0-19.4-68.8-275.3-152.7-569.9l-154.8-535.5l-572.1-6.4c-563.5-6.4-574.2-6.4-668.9-60.2c-51.6-30.1-124.7-96.8-161.3-146.2c-62.4-92.5-64.5-98.9-64.5-359.2c0-260.2,2.2-266.7,64.5-359.2c43-60.2,105.4-111.8,180.7-150.5l118.3-60.2H5000h2249.6l118.3,60.2c75.3,38.7,137.6,90.3,180.7,150.5c62.4,92.5,64.5,101.1,64.5,344.1c0,286-30.1,376.4-152.7,471c-137.6,103.2-195.7,111.8-776.4,114h-542l-32.2,114c-17.2,60.2-86,303.3-152.7,537.7c-66.7,232.3-124.7,438.7-131.2,455.9c-10.8,27.9,225.8,32.3,1985,32.3H9811l40.8,45.2c38.7,45.2,40.9,131.2,47.3,3157.2c2.2,1709.8,0,3131.4-6.4,3159.3c-6.4,25.8-30.1,66.7-53.8,90.3c-43,43-92.5,43-4839,43S204,4497.3,161,4454.3z M9580.9,1249.8v-2946.4H5000H419.1v2946.4v2946.4H5000h4580.9V1249.8z M5649.5-2513.8c79.6-277.4,150.5-531.2,157-563.5l15.1-60.2h-819.4c-451.6,0-819.4,6.4-819.4,15.1c0,21.5,303.2,1088.2,316.1,1109.7c4.3,8.6,234.4,12.9,507.5,10.8l496.8-6.4L5649.5-2513.8z M7281.8-3501c58.1-71,58.1-341.9,0-412.9l-40.8-51.6H5000H2759l-40.9,51.6c-32.3,38.7-40.9,83.9-40.9,204.3c0,167.7,32.3,240.9,114,255.9c25.8,4.3,1038.8,8.6,2247.4,6.4l2202.3-2.1L7281.8-3501z"/></g></g>
</svg>
