<svg width="62" height="62" viewBox="0 0 62 62" fill="none" xmlns="http://www.w3.org/2000/svg">
<rect width="8.14487" height="23.8916" rx="3" transform="matrix(-0.982511 -0.186208 -0.0569654 -0.998376 57.6661 27.502)" fill="#737373"/>
<path d="M54.2796 18.7901C55.9075 19.0986 57.3037 20.6897 57.3981 22.3438L57.5203 24.4852C57.6146 26.1394 56.3715 27.2302 54.7436 26.9217L37.1649 23.5902C35.5371 23.2816 34.1409 21.6906 34.0465 20.0364L33.9243 17.895C33.8299 16.2409 35.0731 15.15 36.701 15.4585L54.2796 18.7901Z" fill="#737373"/>
<mask id="path-3-inside-1" fill="white">
<path d="M60.272 31.864C60.272 39.0472 57.7061 45.9943 53.0369 51.453C48.3676 56.9117 41.902 60.523 34.8055 61.636C27.709 62.749 20.4483 61.2906 14.332 57.5235C8.21574 53.7564 3.64623 47.9285 1.44705 41.0902C-0.752124 34.2518 -0.436311 26.8528 2.33757 20.2267C5.11145 13.6006 10.1609 8.18328 16.576 4.95108C22.991 1.71888 30.3495 0.884418 37.3254 2.5981C44.3013 4.31179 50.4356 8.46089 54.6228 14.2976L45.8451 20.5945C43.1589 16.8501 39.2235 14.1883 34.7483 13.0889C30.273 11.9895 25.5522 12.5249 21.4368 14.5984C17.3213 16.672 14.0819 20.1474 12.3023 24.3983C10.5228 28.6491 10.3202 33.3959 11.7311 37.7829C13.1419 42.1699 16.0734 45.9087 19.9972 48.3255C23.921 50.7422 28.579 51.6778 33.1316 50.9638C37.6843 50.2497 41.8322 47.9329 44.8277 44.431C47.8232 40.9291 49.4693 36.4723 49.4693 31.864L60.272 31.864Z"/>
</mask>
<path d="M60.272 31.864C60.272 39.0472 57.7061 45.9943 53.0369 51.453C48.3676 56.9117 41.902 60.523 34.8055 61.636C27.709 62.749 20.4483 61.2906 14.332 57.5235C8.21574 53.7564 3.64623 47.9285 1.44705 41.0902C-0.752124 34.2518 -0.436311 26.8528 2.33757 20.2267C5.11145 13.6006 10.1609 8.18328 16.576 4.95108C22.991 1.71888 30.3495 0.884418 37.3254 2.5981C44.3013 4.31179 50.4356 8.46089 54.6228 14.2976L45.8451 20.5945C43.1589 16.8501 39.2235 14.1883 34.7483 13.0889C30.273 11.9895 25.5522 12.5249 21.4368 14.5984C17.3213 16.672 14.0819 20.1474 12.3023 24.3983C10.5228 28.6491 10.3202 33.3959 11.7311 37.7829C13.1419 42.1699 16.0734 45.9087 19.9972 48.3255C23.921 50.7422 28.579 51.6778 33.1316 50.9638C37.6843 50.2497 41.8322 47.9329 44.8277 44.431C47.8232 40.9291 49.4693 36.4723 49.4693 31.864L60.272 31.864Z" stroke="#737373" stroke-width="90" mask="url(#path-3-inside-1)"/>
</svg>
