<?xml version="1.0" encoding="iso-8859-1"?>
<!-- Generator: Adobe Illustrator 18.0.0, SVG Export Plug-In . SVG Version: 6.00 Build 0)  -->
<!DOCTYPE svg PUBLIC "-//W3C//DTD SVG 1.1//EN" "http://www.w3.org/Graphics/SVG/1.1/DTD/svg11.dtd">
<svg fill="#fff" version="1.1" id="Capa_1" xmlns="http://www.w3.org/2000/svg" xmlns:xlink="http://www.w3.org/1999/xlink" x="0px" y="0px"
	 viewBox="0 0 230 230" style="enable-background:new 0 0 230 230;" xml:space="preserve">
<path d="M36.258,230H193.74c5.217,0,9.459-4.244,9.459-9.46V9.46c0-5.216-4.242-9.46-9.459-9.46H36.258
	c-5.215,0-9.457,4.244-9.457,9.46V220.54C26.801,225.756,31.043,230,36.258,230z M115,223.155c-2.117,0-3.834-1.717-3.834-3.834
	s1.717-3.833,3.834-3.833c2.115,0,3.832,1.716,3.832,3.833S117.115,223.155,115,223.155z M45.818,18.619h138.363v192.762H45.818
	V18.619z"/>
<g>
</g>
<g>
</g>
<g>
</g>
<g>
</g>
<g>
</g>
<g>
</g>
<g>
</g>
<g>
</g>
<g>
</g>
<g>
</g>
<g>
</g>
<g>
</g>
<g>
</g>
<g>
</g>
<g>
</g>
</svg>
