<?xml version="1.0" encoding="iso-8859-1"?>
<!-- Generator: Adobe Illustrator 19.0.0, SVG Export Plug-In . SVG Version: 6.00 Build 0)  -->
<svg version="1.1" id="Layer_1" xmlns="http://www.w3.org/2000/svg" xmlns:xlink="http://www.w3.org/1999/xlink" x="0px" y="0px"
	 viewBox="0 0 512 512" style="enable-background:new 0 0 512 512;" xml:space="preserve">
<g>
	<g>
		<path d="M498.604,240.069l-100.512-73.712c-6.269-4.596-13.012-5.653-18.565-2.831c-5.52,2.797-8.683,8.867-8.683,16.651v25.65
			h-67.585v-68.934h26.258c7.801,0,13.878-3.164,16.676-8.675c2.789-5.52,1.749-12.28-2.855-18.574L269.624,9.141
			C265.362,3.33,259.201,0,252.707,0c-6.486,0-12.646,3.33-16.9,9.133l-73.712,100.512c-4.596,6.269-5.636,13.037-2.839,18.557
			c2.797,5.528,8.875,8.692,16.659,8.692h26.258v68.934h-61.016v-25.65c0-7.784-3.164-13.853-8.683-16.651
			c-5.545-2.822-12.305-1.765-18.574,2.831L13.404,240.069c-5.811,4.254-9.141,10.415-9.141,16.901
			c0,6.494,3.33,12.654,9.133,16.917L113.907,347.6c6.294,4.604,13.054,5.644,18.574,2.847c5.511-2.789,8.675-8.866,8.675-16.667
			v-25.65h61.016v66.977h-26.258c-7.784,0-13.853,3.164-16.651,8.684c-2.806,5.528-1.765,12.296,2.831,18.574l73.712,100.495
			c4.254,5.811,10.415,9.141,16.901,9.141c6.494,0,12.654-3.33,16.917-9.133l73.712-100.512c4.612-6.294,5.645-13.062,2.847-18.574
			c-2.789-5.511-8.866-8.675-16.667-8.675h-26.258v-66.978h67.585v25.651c0,7.801,3.164,13.878,8.675,16.667
			c5.528,2.797,12.288,1.757,18.582-2.847l100.495-73.712c5.811-4.263,9.141-10.423,9.141-16.917
			C507.737,250.484,504.407,244.324,498.604,240.069z M488.514,260.133l-100.495,73.712c-0.042,0.033-0.083,0.058-0.125,0.092
			c0-0.05,0-0.108,0-0.158v-34.176c0-4.712-3.813-8.525-8.525-8.525h-84.635c-4.712,0-8.525,3.813-8.525,8.525v84.028
			c0,4.712,3.813,8.525,8.525,8.525h34.783c0.05,0,0.108,0,0.158,0c-0.033,0.042-0.058,0.083-0.092,0.117l-73.712,100.512
			c-1.007,1.374-2.164,2.164-3.164,2.164c-0.991,0-2.14-0.791-3.147-2.173l-73.712-100.495c-0.033-0.042-0.058-0.083-0.092-0.125
			c0.05,0,0.108,0,0.158,0h34.783c4.712,0,8.525-3.813,8.525-8.525v-84.028c0-4.712-3.813-8.525-8.525-8.525h-78.067
			c-4.712,0-8.525,3.813-8.525,8.525v34.176c0,0.05,0,0.108,0,0.158c-0.042-0.033-0.083-0.058-0.117-0.092L23.477,260.133
			c-1.374-1.007-2.165-2.164-2.165-3.164c0-0.991,0.791-2.14,2.173-3.147l100.495-73.712c0.042-0.033,0.083-0.058,0.125-0.092
			c0,0.05,0,0.108,0,0.158v34.176c0,4.712,3.813,8.525,8.525,8.525h78.066c4.712,0,8.525-3.813,8.525-8.525v-85.984
			c0-4.712-3.813-8.525-8.525-8.525h-34.783c-0.05,0-0.1,0-0.15,0c0.025-0.033,0.05-0.075,0.083-0.108l73.713-100.52
			c2.023-2.764,4.304-2.756,6.311,0.008l73.712,100.504c0.033,0.042,0.058,0.075,0.083,0.117c-0.05,0-0.1,0-0.15,0h-34.783
			c-4.712,0-8.525,3.813-8.525,8.525v85.984c0,4.712,3.813,8.525,8.525,8.525h84.635c4.712,0,8.525-3.813,8.525-8.525v-34.176
			c0-0.05,0-0.108,0-0.158c0.042,0.033,0.083,0.058,0.117,0.092l100.512,73.712c1.374,1.007,2.164,2.156,2.164,3.147
			C490.687,257.969,489.896,259.126,488.514,260.133z"/>
	</g>
</g>
<g>
</g>
<g>
</g>
<g>
</g>
<g>
</g>
<g>
</g>
<g>
</g>
<g>
</g>
<g>
</g>
<g>
</g>
<g>
</g>
<g>
</g>
<g>
</g>
<g>
</g>
<g>
</g>
<g>
</g>
</svg>
