<?xml version="1.0" encoding="iso-8859-1"?>
<!-- Generator: Adobe Illustrator 18.0.0, SVG Export Plug-In . SVG Version: 6.00 Build 0)  -->
<!DOCTYPE svg PUBLIC "-//W3C//DTD SVG 1.1//EN" "http://www.w3.org/Graphics/SVG/1.1/DTD/svg11.dtd">
<svg version="1.1" id="Capa_1" xmlns="http://www.w3.org/2000/svg" xmlns:xlink="http://www.w3.org/1999/xlink" x="0px" y="0px"
	 viewBox="0 0 230.344 230.344" style="enable-background:new 0 0 230.344 230.344;" xml:space="preserve">
<g>
	<path d="M223.764,89.072l-27.828-3.442c-0.829-2.269-1.753-4.503-2.769-6.691l17.243-22.107c2.329-2.986,2.066-7.24-0.612-9.917
		l-26.385-26.37c-2.678-2.676-6.93-2.938-9.914-0.609l-22.1,17.235c-2.187-1.015-4.422-1.94-6.693-2.769l-3.441-27.821
		c-0.465-3.758-3.657-6.58-7.443-6.58H96.516c-3.786,0-6.979,2.822-7.443,6.58l-3.441,27.822c-2.271,0.83-4.505,1.754-6.689,2.768
		L56.839,19.93c-2.984-2.329-7.238-2.067-9.916,0.61L20.543,46.916c-2.678,2.677-2.94,6.931-0.611,9.917l17.241,22.104
		c-1.016,2.185-1.941,4.42-2.772,6.694L6.579,89.072C2.822,89.537,0,92.729,0,96.516v37.309c0,3.787,2.823,6.979,6.581,7.443
		l27.82,3.436c0.83,2.271,1.754,4.505,2.769,6.691l-17.238,22.104c-2.328,2.985-2.066,7.238,0.61,9.915l26.381,26.386
		c2.677,2.678,6.931,2.939,9.917,0.611l22.104-17.242c2.183,1.013,4.416,1.937,6.688,2.767l3.441,27.829
		c0.465,3.757,3.657,6.58,7.443,6.58h37.307c3.786,0,6.979-2.822,7.443-6.58l3.441-27.828c2.271-0.83,4.506-1.754,6.692-2.768
		l22.106,17.243c2.985,2.33,7.238,2.067,9.917-0.611l26.379-26.386c2.677-2.678,2.938-6.931,0.609-9.916l-17.24-22.099
		c1.016-2.187,1.941-4.422,2.771-6.695l27.821-3.436c3.758-0.464,6.581-3.657,6.581-7.443V96.516
		C230.344,92.729,227.522,89.537,223.764,89.072z M215.344,127.193l-25.936,3.203c-2.949,0.364-5.404,2.435-6.262,5.279
		c-1.366,4.531-3.184,8.922-5.405,13.052c-1.408,2.618-1.137,5.821,0.692,8.165l16.073,20.604l-17.003,17.008l-20.607-16.074
		c-2.344-1.828-5.545-2.099-8.162-0.693c-4.128,2.218-8.52,4.035-13.053,5.402c-2.844,0.857-4.913,3.313-5.278,6.26l-3.208,25.944
		h-24.047l-3.208-25.944c-0.364-2.947-2.434-5.402-5.276-6.26c-4.544-1.372-8.934-3.188-13.049-5.401
		c-2.618-1.408-5.82-1.136-8.164,0.692l-20.606,16.074l-17.005-17.009l16.07-20.606c1.828-2.343,2.099-5.544,0.693-8.162
		c-2.216-4.125-4.034-8.517-5.403-13.053c-0.858-2.844-3.313-4.913-6.261-5.277L15,127.193v-24.048l25.937-3.208
		c2.947-0.365,5.401-2.434,6.259-5.276c1.37-4.54,3.189-8.93,5.406-13.05c1.41-2.619,1.139-5.823-0.691-8.168L35.837,52.836
		l17.004-17l20.606,16.073c2.345,1.828,5.546,2.1,8.164,0.692c4.121-2.216,8.511-4.033,13.048-5.401
		c2.843-0.858,4.913-3.313,5.277-6.26l3.207-25.937h24.048l3.208,25.937c0.365,2.948,2.435,5.404,5.28,6.261
		c4.526,1.364,8.917,3.181,13.052,5.402c2.617,1.406,5.818,1.135,8.162-0.693l20.604-16.068l17.006,16.997l-16.072,20.607
		c-1.827,2.342-2.099,5.541-0.695,8.158c2.222,4.141,4.04,8.534,5.403,13.056c0.857,2.844,3.312,4.914,6.26,5.279l25.944,3.208
		V127.193z"/>
	<path d="M115.168,68.422c-25.774,0-46.742,20.972-46.742,46.751c0,25.775,20.968,46.744,46.742,46.744
		c25.777,0,46.748-20.969,46.748-46.744C161.916,89.394,140.945,68.422,115.168,68.422z M115.168,146.917
		c-17.502,0-31.742-14.24-31.742-31.744c0-17.507,14.24-31.751,31.742-31.751c17.506,0,31.748,14.244,31.748,31.751
		C146.916,132.677,132.674,146.917,115.168,146.917z"/>
</g>
<g>
</g>
<g>
</g>
<g>
</g>
<g>
</g>
<g>
</g>
<g>
</g>
<g>
</g>
<g>
</g>
<g>
</g>
<g>
</g>
<g>
</g>
<g>
</g>
<g>
</g>
<g>
</g>
<g>
</g>
</svg>
